HIERARCHY
ROOT Hips
{
	OFFSET 0.091440 88.258293 2.461285
	CHANNELS 6 Xposition Yposition Zposition Zrotation Yrotation Xrotation 
	JOINT Spine
	{
		OFFSET -0.000000 8.814246 -2.080107
		CHANNELS 3 Zrotation Yrotation Xrotation
		JOINT Spine1
		{
			OFFSET 0.000000 8.844141 -0.000000
			CHANNELS 3 Zrotation Yrotation Xrotation
			JOINT Spine2
			{
				OFFSET 0.000000 11.682268 -0.000000
				CHANNELS 3 Zrotation Yrotation Xrotation
				JOINT Spine3
				{
					OFFSET 0.000000 11.746700 -0.000000
					CHANNELS 3 Zrotation Yrotation Xrotation
					JOINT Neck
					{
						OFFSET -0.000000 17.658264 0.000000
						CHANNELS 3 Zrotation Yrotation Xrotation
						JOINT Neck1
						{
							OFFSET 0.000000 5.101515 -0.000000
							CHANNELS 3 Zrotation Yrotation Xrotation
							JOINT Head
							{
								OFFSET 0.000000 5.101515 -0.000000
								CHANNELS 3 Zrotation Yrotation Xrotation
								JOINT HeadEnd
								{
									OFFSET -0.000000 11.655085 0.000000
									CHANNELS 3 Zrotation Yrotation Xrotation
									End Site
									{
										OFFSET 0.000000 0.000000 0.000000
									}
								}
							}
						}
					}
					JOINT RightShoulder
					{
						OFFSET -2.625389 11.175210 -0.000000
						CHANNELS 3 Zrotation Yrotation Xrotation
						JOINT RightArm
						{
							OFFSET 0.000000 10.434715 -0.000000
							CHANNELS 3 Zrotation Yrotation Xrotation
							JOINT RightForeArm
							{
								OFFSET 0.000000 29.628420 -0.000000
								CHANNELS 3 Zrotation Yrotation Xrotation
								JOINT RightHand
								{
									OFFSET -0.000000 22.857611 0.000000
									CHANNELS 3 Zrotation Yrotation Xrotation
									JOINT RightHandThumb1
									{
										OFFSET -2.867323 3.959563 2.944291
										CHANNELS 3 Zrotation Yrotation Xrotation
										JOINT RightHandThumb2
										{
											OFFSET -0.000000 3.350399 0.000000
											CHANNELS 3 Zrotation Yrotation Xrotation
											JOINT RightHandThumb3
											{
												OFFSET -0.000000 3.756509 0.000000
												CHANNELS 3 Zrotation Yrotation Xrotation
												JOINT RightHandThumb4
												{
													OFFSET 0.000000 3.147345 -0.000000
													CHANNELS 3 Zrotation Yrotation Xrotation
													End Site
													{
														OFFSET 0.000000 0.000000 0.000000
													}
												}
											}
										}
									}
									JOINT RightHandIndex1
									{
										OFFSET -0.086752 10.030893 2.345280
										CHANNELS 3 Zrotation Yrotation Xrotation
										JOINT RightHandIndex2
										{
											OFFSET 0.000000 4.061090 -0.000000
											CHANNELS 3 Zrotation Yrotation Xrotation
											JOINT RightHandIndex3
											{
												OFFSET -0.000000 3.248873 0.000000
												CHANNELS 3 Zrotation Yrotation Xrotation
												JOINT RightHandIndex4
												{
													OFFSET 0.000000 2.639709 -0.000000
													CHANNELS 3 Zrotation Yrotation Xrotation
													End Site
													{
														OFFSET 0.000000 0.000000 0.000000
													}
												}
											}
										}
									}
									JOINT RightHandMiddle1
									{
										OFFSET 0.104102 9.502952 0.006768
										CHANNELS 3 Zrotation Yrotation Xrotation
										JOINT RightHandMiddle2
										{
											OFFSET -0.000000 4.568727 0.000000
											CHANNELS 3 Zrotation Yrotation Xrotation
											JOINT RightHandMiddle3
											{
												OFFSET -0.000000 3.654981 0.000000
												CHANNELS 3 Zrotation Yrotation Xrotation
												JOINT RightHandMiddle4
												{
													OFFSET -0.000000 2.741236 0.000000
													CHANNELS 3 Zrotation Yrotation Xrotation
													End Site
													{
														OFFSET 0.000000 0.000000 0.000000
													}
												}
											}
										}
									}
									JOINT RightHandRing1
									{
										OFFSET 0.086752 8.921708 -2.267442
										CHANNELS 3 Zrotation Yrotation Xrotation
										JOINT RightHandRing2
										{
											OFFSET -0.000000 4.061090 0.000000
											CHANNELS 3 Zrotation Yrotation Xrotation
											JOINT RightHandRing3
											{
												OFFSET -0.000000 3.654981 0.000000
												CHANNELS 3 Zrotation Yrotation Xrotation
												JOINT RightHandRing4
												{
													OFFSET 0.000000 2.741236 0.000000
													CHANNELS 3 Zrotation Yrotation Xrotation
													End Site
													{
														OFFSET 0.000000 0.000000 0.000000
													}
												}
											}
										}
									}
									JOINT RightHandPinky1
									{
										OFFSET -0.173504 7.976997 -4.467199
										CHANNELS 3 Zrotation Yrotation Xrotation
										JOINT RightHandPinky2
										{
											OFFSET -0.000000 3.350399 -0.000000
											CHANNELS 3 Zrotation Yrotation Xrotation
											JOINT RightHandPinky3
											{
												OFFSET -0.000000 2.842763 -0.000000
												CHANNELS 3 Zrotation Yrotation Xrotation
												JOINT RightHandPinky4
												{
													OFFSET -0.000000 2.639709 -0.000000
													CHANNELS 3 Zrotation Yrotation Xrotation
													End Site
													{
														OFFSET 0.000000 0.000000 0.000000
													}
												}
											}
										}
									}
									JOINT RightForeArmEnd
									{
										OFFSET 0.000000 0.000000 0.000000
										CHANNELS 3 Zrotation Yrotation Xrotation
										End Site
										{
											OFFSET 0.000000 0.000000 0.000000
										}
									}
								}
								JOINT RightArmEnd
								{
									OFFSET 0.000000 0.000000 0.000000
									CHANNELS 3 Zrotation Yrotation Xrotation
									End Site
									{
										OFFSET 0.000000 0.000000 0.000000
									}
								}
							}
						}
					}
					JOINT LeftShoulder
					{
						OFFSET 2.625389 11.175210 0.000000
						CHANNELS 3 Zrotation Yrotation Xrotation
						JOINT LeftArm
						{
							OFFSET -0.000000 10.813635 -0.000000
							CHANNELS 3 Zrotation Yrotation Xrotation
							JOINT LeftForeArm
							{
								OFFSET -0.000000 28.724781 -0.000000
								CHANNELS 3 Zrotation Yrotation Xrotation
								JOINT LeftHand
								{
									OFFSET 0.644384 25.716167 -0.328871
									CHANNELS 3 Zrotation Yrotation Xrotation
									JOINT LeftHandThumb1
									{
										OFFSET 2.867323 3.959563 2.944291
										CHANNELS 3 Zrotation Yrotation Xrotation
										JOINT LeftHandThumb2
										{
											OFFSET -0.000000 3.350399 0.000000
											CHANNELS 3 Zrotation Yrotation Xrotation
											JOINT LeftHandThumb3
											{
												OFFSET -0.000000 3.756509 -0.000000
												CHANNELS 3 Zrotation Yrotation Xrotation
												JOINT LeftHandThumb4
												{
													OFFSET 0.000000 3.100000 0.000000
													CHANNELS 3 Zrotation Yrotation Xrotation
													End Site
													{
														OFFSET 0.000000 0.000000 0.000000
													}
												}
											}
										}
									}
									JOINT LeftHandIndex1
									{
										OFFSET 0.086752 10.030893 2.345280
										CHANNELS 3 Zrotation Yrotation Xrotation
										JOINT LeftHandIndex2
										{
											OFFSET -0.000000 4.061090 0.000000
											CHANNELS 3 Zrotation Yrotation Xrotation
											JOINT LeftHandIndex3
											{
												OFFSET -0.000000 3.248873 -0.000000
												CHANNELS 3 Zrotation Yrotation Xrotation
												JOINT LeftHandIndex4
												{
													OFFSET -0.000000 2.639709 -0.000000
													CHANNELS 3 Zrotation Yrotation Xrotation
													End Site
													{
														OFFSET 0.000000 0.000000 0.000000
													}
												}
											}
										}
									}
									JOINT LeftHandMiddle1
									{
										OFFSET -0.104102 9.502952 0.006768
										CHANNELS 3 Zrotation Yrotation Xrotation
										JOINT LeftHandMiddle2
										{
											OFFSET -0.000000 4.568727 -0.000000
											CHANNELS 3 Zrotation Yrotation Xrotation
											JOINT LeftHandMiddle3
											{
												OFFSET 0.000000 3.654981 -0.000000
												CHANNELS 3 Zrotation Yrotation Xrotation
												JOINT LeftHandMiddle4
												{
													OFFSET -0.000000 2.741236 -0.000000
													CHANNELS 3 Zrotation Yrotation Xrotation
													End Site
													{
														OFFSET 0.000000 0.000000 0.000000
													}
												}
											}
										}
									}
									JOINT LeftHandRing1
									{
										OFFSET -0.086752 8.921708 -2.267442
										CHANNELS 3 Zrotation Yrotation Xrotation
										JOINT LeftHandRing2
										{
											OFFSET 0.000000 4.061090 0.000000
											CHANNELS 3 Zrotation Yrotation Xrotation
											JOINT LeftHandRing3
											{
												OFFSET 0.000000 3.654981 -0.000000
												CHANNELS 3 Zrotation Yrotation Xrotation
												JOINT LeftHandRing4
												{
													OFFSET 0.000000 2.741236 -0.000000
													CHANNELS 3 Zrotation Yrotation Xrotation
													End Site
													{
														OFFSET 0.000000 0.000000 0.000000
													}
												}
											}
										}
									}
									JOINT LeftHandPinky1
									{
										OFFSET 0.173504 7.976997 -4.467199
										CHANNELS 3 Zrotation Yrotation Xrotation
										JOINT LeftHandPinky2
										{
											OFFSET -0.000000 3.350399 0.000000
											CHANNELS 3 Zrotation Yrotation Xrotation
											JOINT LeftHandPinky3
											{
												OFFSET 0.000000 2.842763 0.000000
												CHANNELS 3 Zrotation Yrotation Xrotation
												JOINT LeftHandPinky4
												{
													OFFSET 0.000000 2.639709 0.000000
													CHANNELS 3 Zrotation Yrotation Xrotation
													End Site
													{
														OFFSET 0.000000 0.000000 0.000000
													}
												}
											}
										}
									}
									JOINT LeftForeArmEnd
									{
										OFFSET 0.000000 0.000000 0.000000
										CHANNELS 3 Zrotation Yrotation Xrotation
										End Site
										{
											OFFSET 0.000000 0.000000 0.000000
										}
									}
								}
								JOINT LeftArmEnd
								{
									OFFSET 0.000000 0.000000 0.000000
									CHANNELS 3 Zrotation Yrotation Xrotation
									End Site
									{
										OFFSET 0.000000 0.000000 0.000000
									}
								}
							}
						}
					}
				}
			}
		}
	}
	JOINT RightUpLeg
	{
		OFFSET -11.289943 0.000000 0.000000
		CHANNELS 3 Zrotation Yrotation Xrotation
		JOINT RightLeg
		{
			OFFSET 0.000000 -38.200325 -0.000000
			CHANNELS 3 Zrotation Yrotation Xrotation
			JOINT RightFoot
			{
				OFFSET 0.000000 -39.900856 0.000000
				CHANNELS 3 Zrotation Yrotation Xrotation
				JOINT RightToeBase
				{
					OFFSET -0.000000 -0.000000 15.261641
					CHANNELS 3 Zrotation Yrotation Xrotation
					JOINT RightToeBaseEnd
					{
						OFFSET 0.000000 0.000000 7.370709
						CHANNELS 3 Zrotation Yrotation Xrotation
						End Site
						{
							OFFSET 0.000000 0.000000 0.000000
						}
					}
				}
				JOINT RightLegEnd
				{
					OFFSET 0.000000 0.000000 0.000000
					CHANNELS 3 Zrotation Yrotation Xrotation
					End Site
					{
						OFFSET 0.000000 0.000000 0.000000
					}
				}
			}
			JOINT RightUpLegEnd
			{
				OFFSET 0.000000 0.000000 0.000000
				CHANNELS 3 Zrotation Yrotation Xrotation
				End Site
				{
					OFFSET 0.000000 0.000000 0.000000
				}
			}
		}
	}
	JOINT LeftUpLeg
	{
		OFFSET 11.315661 0.000000 -0.000000
		CHANNELS 3 Zrotation Yrotation Xrotation
		JOINT LeftLeg
		{
			OFFSET -0.000000 -38.200325 0.000000
			CHANNELS 3 Zrotation Yrotation Xrotation
			JOINT LeftFoot
			{
				OFFSET -0.000000 -39.900856 0.000000
				CHANNELS 3 Zrotation Yrotation Xrotation
				JOINT LeftToeBase
				{
					OFFSET 0.000000 -0.000000 15.261641
					CHANNELS 3 Zrotation Yrotation Xrotation
					JOINT LeftToeBaseEnd
					{
						OFFSET 0.000000 -0.000000 7.539996
						CHANNELS 3 Zrotation Yrotation Xrotation
						End Site
						{
							OFFSET 0.000000 0.000000 0.000000
						}
					}
				}
				JOINT LeftLegEnd
				{
					OFFSET 0.000000 0.000000 0.000000
					CHANNELS 3 Zrotation Yrotation Xrotation
					End Site
					{
						OFFSET 0.000000 0.000000 0.000000
					}
				}
			}
			JOINT LeftUpLegEnd
			{
				OFFSET 0.000000 0.000000 0.000000
				CHANNELS 3 Zrotation Yrotation Xrotation
				End Site
				{
					OFFSET 0.000000 0.000000 0.000000
				}
			}
		}
	}
}
MOTION
Frames: 4
Frame Time: 0.016667
0.091440 88.258293 2.461285 0.591087 0.054731 -5.289962 -0.894396 0.077585 4.917545 0.540579 -0.020194 2.727550 -0.754458 1.518980 2.091917 -1.200527 -0.002934 0.961076 -0.477551 -0.707486 3.663242 -0.213349 -1.691374 -3.333384 0.887951 0.979295 -18.218142 0.000000 0.000000 0.000000 87.789825 0.278370 7.258331 70.678940 -29.497864 -1.598469 -0.079448 6.370740 29.306686 6.141445 15.736719 -6.800169 10.937046 -1.865515 39.738762 0.000000 0.000000 -26.639997 0.000000 0.000000 -18.499998 0.000000 0.000000 0.000000 14.860734 -0.000000 -8.017526 10.402515 0.000000 0.000000 10.402515 0.000000 0.000000 0.000000 0.000000 0.000000 13.780698 0.000000 -8.980714 9.646488 0.000000 0.000000 9.646488 0.000000 0.000000 0.000000 0.000000 0.000000 14.966226 0.000000 -8.723907 10.476359 0.000000 0.000000 10.476359 0.000000 0.000000 0.000000 0.000000 0.000000 15.341956 0.000000 -10.207614 10.739368 0.000000 0.000000 10.739368 0.000000 0.000000 0.000000 0.000000 0.000000 0.000000 0.000000 0.000000 0.000000 0.000000 0.000000 -87.421745 -0.431831 9.620141 -67.676926 35.027306 0.573211 -0.443448 -17.633209 37.900898 -4.304639 -13.952137 -9.979151 -10.637670 1.840800 39.870987 0.000000 0.000000 -25.919998 0.000000 0.000000 -18.000004 0.000000 0.000000 0.000000 -13.206237 -0.000000 -9.825010 -9.244366 0.000000 0.000000 -9.244366 0.000000 0.000000 0.000000 0.000000 0.000000 -13.057719 0.000000 -10.850152 -9.140406 0.000000 0.000000 -9.140406 0.000000 0.000000 0.000000 0.000000 0.000000 -16.311131 0.000000 -12.225805 -11.417791 0.000000 0.000000 -11.417791 0.000000 0.000000 0.000000 0.000000 0.000000 -18.581762 -0.000000 -14.176181 -13.007236 0.000000 0.000000 -13.007236 0.000000 0.000000 0.000000 0.000000 0.000000 0.000000 0.000000 0.000000 0.000000 0.000000 0.000000 -0.738288 13.323823 -3.318040 -0.187791 -0.468353 21.848417 -0.795142 -8.231097 14.033000 -0.601477 0.672234 -21.803326 0.000000 0.000000 0.000000 0.000000 0.000000 0.000000 0.000000 0.000000 0.000000 2.308090 3.191759 -1.134184 0.218986 0.500895 23.615168 -2.570842 12.892135 12.410583 1.030963 -0.656711 -22.198404 0.000000 0.000000 0.000000 0.000000 0.000000 0.000000 0.000000 0.000000 0.000000 
-0.185067 87.957794 2.219376 -0.109956 0.194676 -7.532502 0.423301 -0.062567 6.224822 -0.157032 -0.122513 5.727383 -0.212679 -1.237467 -1.839104 -0.863908 -0.557230 3.641694 -0.109967 0.679671 0.370185 -0.906226 0.446800 -5.323893 -0.412880 0.142052 -16.164022 0.000000 0.000000 0.000000 87.507278 0.546625 8.255976 66.897133 -35.270367 1.924477 0.166869 12.711579 27.403114 6.997396 13.201952 -7.278206 11.087076 -1.859549 39.689144 -0.000008 0.000020 -27.130947 0.000009 0.000041 -18.701029 0.000012 0.000006 -0.000033 15.109723 0.014777 -5.171639 9.922641 0.060686 -0.312394 10.083203 0.077874 -0.312259 -0.000012 0.000030 -0.000030 13.525114 0.050296 -6.891466 9.334787 0.015867 -0.116407 9.309309 0.025082 -0.101340 0.000016 -0.000097 0.000005 13.666877 -0.087519 -8.438559 9.818011 0.019161 0.102851 9.690045 -0.016784 0.088174 -0.000010 -0.000750 0.000004 13.452141 -0.221340 -10.989623 9.856069 0.015213 0.313088 9.535281 -0.067922 0.322765 0.000363 -0.000008 0.000028 0.000000 0.000000 0.000000 0.000000 0.000000 0.000000 -86.645622 -0.682288 8.708405 -66.606400 27.057072 0.277445 -1.367850 -12.228949 39.433308 -4.431727 -11.132392 -12.561529 -9.365252 1.675872 40.493996 0.000002 0.000019 -22.807034 0.000248 -0.000029 -15.776727 0.000121 -0.000005 0.000904 -12.138593 0.057249 -11.764451 -9.137167 0.015506 0.260923 -9.387175 0.039096 0.269111 0.000024 0.000552 0.000014 -12.323692 0.052038 -11.654592 -9.186475 -0.005318 0.091294 -8.931811 0.015979 0.088806 -0.000014 -0.000064 -0.000026 -16.121723 -0.061653 -10.467947 -11.344409 -0.008518 -0.159628 -11.119089 -0.022944 -0.109921 0.000086 0.000006 0.000010 -18.243433 -0.236029 -9.455243 -12.508553 0.007330 -0.326894 -12.461626 -0.051645 -0.301647 -0.000099 -0.000005 -0.000045 0.000000 0.000000 0.000000 0.000000 0.000000 0.000000 -0.033199 7.960700 -1.660203 -0.235035 -0.312304 22.103935 -1.089492 -2.813611 15.952702 -0.458557 0.687017 -20.898937 0.000000 0.000000 0.000000 0.000000 0.000000 0.000000 0.000000 0.000000 0.000000 2.936010 4.014280 1.916268 0.214242 0.477797 21.961912 -1.615217 14.022022 15.667723 0.646610 -0.637203 -22.145098 0.000000 0.000000 0.000000 0.000000 0.000000 0.000000 0.000000 0.000000 0.000000 
-0.413058 87.970634 2.310687 -0.157567 0.410916 -7.541533 0.447952 -0.101198 6.147277 -0.182864 -0.158676 5.662343 -0.162465 -1.583891 -1.802010 -0.690321 -0.721485 3.673637 0.387727 0.480163 0.349003 -0.865702 0.426888 -5.277437 -0.361917 0.156861 -16.294172 0.000000 0.000000 0.000000 87.567055 0.511104 8.167848 66.709610 -35.173935 1.846617 0.146425 12.886307 27.064468 7.055171 13.501213 -7.250950 11.019104 -1.857980 39.718586 -0.000008 0.000036 -26.993002 -0.000001 0.000032 -18.592678 0.000017 0.000002 -0.000036 15.084409 0.017621 -4.922531 9.714451 0.037888 -0.235843 9.842459 0.059611 -0.240387 -0.000004 0.000031 -0.000022 13.461433 0.050602 -6.600311 9.154503 0.006675 -0.083638 9.100094 0.018156 -0.073772 0.000015 -0.000110 0.000003 13.686763 -0.088990 -8.103356 9.645544 0.032158 0.061536 9.524435 -0.006653 0.055540 -0.000019 -0.000996 0.000006 13.498906 -0.221108 -10.629698 9.758569 0.056271 0.212641 9.419192 -0.037940 0.240374 0.000450 -0.000001 0.000013 0.000000 0.000000 0.000000 0.000000 0.000000 0.000000 -86.416672 -0.690924 8.672878 -66.863579 27.091749 -0.110877 -1.351731 -11.653665 39.165432 -4.321155 -10.909092 -13.474169 -9.266079 1.668524 40.529701 -0.000007 0.000022 -22.627718 0.000231 -0.000020 -15.640275 0.000165 -0.000006 0.000949 -11.753250 0.060199 -11.518408 -8.910913 -0.005759 0.161574 -9.147400 0.019023 0.178829 0.000024 0.000557 0.000013 -11.831826 0.053383 -11.502920 -8.916131 -0.013061 0.049183 -8.689383 0.008927 0.054597 0.000051 -0.000059 -0.000076 -15.495723 -0.055676 -10.451915 -10.998566 0.004791 -0.099558 -10.802192 -0.012437 -0.062822 0.000379 0.000014 0.000008 -17.596539 -0.219828 -9.534915 -12.161945 0.044171 -0.150386 -12.142098 -0.021584 -0.163479 0.000108 0.000008 -0.000061 0.000000 0.000000 0.000000 0.000000 0.000000 0.000000 0.131053 7.509528 -1.553833 -0.226540 -0.312701 21.685900 -1.195283 -2.968956 15.895962 -0.484736 0.668650 -20.772051 0.000000 0.000000 0.000000 0.000000 0.000000 0.000000 0.000000 0.000000 0.000000 3.200228 3.907011 1.955747 0.223176 0.487818 21.742512 -1.840356 13.790753 15.800978 0.677264 -0.637982 -22.216551 0.000000 0.000000 0.000000 0.000000 0.000000 0.000000 0.000000 0.000000 0.000000 
-0.633917 87.985710 2.393025 -0.213126 0.559782 -7.541840 0.477200 -0.141916 6.109941 -0.254066 -0.195360 5.562418 -0.067929 -1.928351 -1.771921 -0.520651 -0.877541 3.744688 0.740312 0.341842 0.233374 -0.851048 0.445573 -5.297060 -0.326787 0.194277 -16.443834 0.000000 0.000000 0.000000 87.522392 0.457612 7.954600 66.726021 -34.747684 1.548284 0.128676 13.171848 27.128937 6.940766 13.620687 -7.200049 10.979539 -1.858278 39.733807 -0.000008 0.000037 -26.918430 -0.000004 0.000034 -18.532375 0.000015 0.000001 -0.000033 15.086647 0.017366 -4.575221 9.547887 0.020308 -0.164504 9.657223 0.044049 -0.173993 -0.000003 0.000028 -0.000021 13.426744 0.049512 -6.238070 8.994693 -0.000508 -0.056039 8.925537 0.012638 -0.049487 0.000012 -0.000106 0.000006 13.649251 -0.087548 -7.728656 9.479032 0.041577 0.027510 9.370076 0.000762 0.027783 -0.000015 -0.001282 0.000009 13.514715 -0.209054 -10.264070 9.646995 0.084591 0.141238 9.296185 -0.017468 0.175639 0.000453 -0.000001 0.000008 0.000000 0.000000 0.000000 0.000000 0.000000 0.000000 -86.140320 -0.716356 8.607810 -67.262543 26.831993 -0.495206 -1.393193 -11.265409 38.902325 -4.446551 -10.426178 -14.043025 -9.191149 1.665011 40.552803 -0.000011 0.000021 -22.498045 0.000227 -0.000019 -15.538335 0.000232 -0.000008 0.000891 -11.392716 0.057609 -11.253230 -8.725786 -0.022318 0.073651 -8.958652 0.003473 0.097507 0.000024 0.000543 0.000015 -11.401127 0.051967 -11.328193 -8.698661 -0.019107 0.013564 -8.486468 0.003286 0.025323 0.000062 -0.000061 -0.000089 -14.908069 -0.049840 -10.369328 -10.705360 0.015024 -0.055263 -10.527574 -0.004724 -0.025861 0.000495 0.000011 0.000007 -16.983990 -0.199828 -9.510247 -11.861529 0.068293 -0.025530 -11.853877 -0.001256 -0.058603 0.000315 0.000005 -0.000063 0.000000 0.000000 0.000000 0.000000 0.000000 0.000000 0.308374 7.003944 -1.370893 -0.215461 -0.308013 21.147493 -1.349268 -3.181092 15.924112 -0.501523 0.645172 -20.682955 0.000000 0.000000 0.000000 0.000000 0.000000 0.000000 0.000000 0.000000 0.000000 3.489267 3.865516 2.014879 0.231212 0.510140 21.475246 -1.974937 13.468053 15.927901 0.710450 -0.631630 -22.311724 0.000000 0.000000 0.000000 0.000000 0.000000 0.000000 0.000000 0.000000 0.000000 
